<svg width="26" height="26" viewBox="0 0 26 26" fill="none" xmlns="http://www.w3.org/2000/svg">
<rect width="26" height="26" rx="1" fill="white"/>
<path d="M24.4736 1C24.7604 1 24.9998 1.23089 25 1.51758V24.4824C24.9998 24.7691 24.7603 25 24.4736 25H1.51758C1.23112 24.9997 1.00023 24.7689 1 24.4824V1.51758C1.00019 1.23107 1.23109 1.00029 1.51758 1H24.4736ZM22.4824 1.87695C22.1478 1.87695 21.8205 1.8843 21.5098 1.9082C21.4222 1.90822 21.3345 1.91587 21.2549 1.92383C20.9125 1.94772 20.578 1.98851 20.2754 2.02832C19.8293 2.08408 19.4225 2.16336 19.0322 2.25098C17.6936 2.5697 16.657 3.05544 15.8682 3.51758C10.1154 6.96783 9.406 14.7689 3.41406 16.0518C3.10348 16.1234 2.82456 16.1638 2.60156 16.1797C2.46622 16.1957 2.35449 16.3069 2.35449 16.4502V23.8047C2.35449 23.9401 2.45835 24.0514 2.59375 24.0674C5.43805 24.2984 7.42205 23.6932 8.71289 23.0957C8.96784 22.9762 9.20727 22.8561 9.44629 22.7207C10.0597 22.3701 10.6255 21.9715 11.1514 21.5254L11.167 21.5098C11.1699 21.5073 11.1728 21.5044 11.1758 21.502H11.167C11.9558 20.8566 12.6575 20.0995 13.2949 19.3027C15.3108 16.8167 16.8171 13.9319 19.0322 12.0195C19.6934 11.454 20.4264 10.9679 21.2549 10.6094C21.3425 10.5695 21.4308 10.5377 21.5264 10.5059L21.8164 10.3984C22.1098 10.2969 22.4148 10.2132 22.7373 10.1475C22.785 10.1316 22.8332 10.1232 22.8809 10.1152C23.0798 10.0755 23.2631 10.0514 23.3984 10.0195C23.5339 10.0036 23.6455 9.89227 23.6455 9.75684V2.17969C23.6455 2.03632 23.526 1.92406 23.3906 1.91602C23.1676 1.90009 22.9444 1.89273 22.7373 1.88477C22.6577 1.88476 22.5777 1.87696 22.498 1.87695H22.4824Z" fill="#E3511F"/>
</svg>
